<svg width="23" height="23" viewBox="0 0 23 23" fill="none" xmlns="http://www.w3.org/2000/svg">
<path d="M21.0546 17.5662C21.0546 17.9112 20.9779 18.2658 20.815 18.6108C20.6521 18.9558 20.4413 19.2816 20.1634 19.5883C19.6938 20.1058 19.1763 20.4795 18.5917 20.7191C18.0167 20.9587 17.3938 21.0833 16.7229 21.0833C15.7454 21.0833 14.7009 20.8533 13.5988 20.3837C12.4967 19.9141 11.3946 19.2816 10.3021 18.4862C9.20002 17.6812 8.15544 16.79 7.15877 15.8029C6.17169 14.8062 5.28044 13.7616 4.48502 12.6691C3.69919 11.5766 3.06669 10.4841 2.60669 9.40121C2.14669 8.30871 1.91669 7.26413 1.91669 6.26746C1.91669 5.61579 2.03169 4.99288 2.26169 4.41788C2.49169 3.83329 2.85585 3.29663 3.36377 2.81746C3.9771 2.21371 4.64794 1.91663 5.3571 1.91663C5.62544 1.91663 5.89377 1.97413 6.13335 2.08913C6.38252 2.20413 6.60294 2.37663 6.77544 2.62579L8.99877 5.75954C9.17127 5.99913 9.29585 6.21954 9.3821 6.43038C9.46835 6.63163 9.51627 6.83288 9.51627 7.01496C9.51627 7.24496 9.44919 7.47496 9.31502 7.69538C9.19044 7.91579 9.00835 8.14579 8.77835 8.37579L8.05002 9.13288C7.9446 9.23829 7.89669 9.36288 7.89669 9.51621C7.89669 9.59288 7.90627 9.65996 7.92544 9.73663C7.95419 9.81329 7.98294 9.87079 8.0021 9.92829C8.1746 10.2445 8.47169 10.6566 8.89335 11.155C9.3246 11.6533 9.7846 12.1612 10.2829 12.6691C10.8004 13.177 11.2988 13.6466 11.8067 14.0779C12.305 14.4995 12.7171 14.787 13.0429 14.9595C13.0909 14.9787 13.1484 15.0075 13.2154 15.0362C13.2921 15.065 13.3688 15.0745 13.455 15.0745C13.6179 15.0745 13.7425 15.017 13.8479 14.9116L14.5763 14.1929C14.8159 13.9533 15.0459 13.7712 15.2663 13.6562C15.4867 13.522 15.7071 13.455 15.9467 13.455C16.1288 13.455 16.3204 13.4933 16.5313 13.5795C16.7421 13.6658 16.9625 13.7904 17.2021 13.9533L20.3742 16.2054C20.6234 16.3779 20.7959 16.5791 20.9013 16.8187C20.9971 17.0583 21.0546 17.2979 21.0546 17.5662Z" stroke="#292D32" stroke-width="1.5" stroke-miterlimit="10"/>
</svg>
