<svg width="24" height="23" viewBox="0 0 24 23" fill="none" xmlns="http://www.w3.org/2000/svg">
<path d="M17 8.62496C17 12.3337 13.64 15.3333 9.5 15.3333L8.57001 16.4066L8.02 17.0392C7.55 17.5758 6.65 17.4608 6.34 16.8187L5 13.9916C3.18 12.7649 2 10.8195 2 8.62496C2 4.91621 5.36 1.91663 9.5 1.91663C12.52 1.91663 15.13 3.51705 16.3 5.81705C16.75 6.66997 17 7.61871 17 8.62496Z" stroke="#292D32" stroke-width="1.5" stroke-linecap="round" stroke-linejoin="round"/>
<path d="M22 12.3242C22 14.5188 20.82 16.4642 19 17.6909L17.66 20.5179C17.35 21.16 16.45 21.2846 15.98 20.7384L14.5 19.0325C12.08 19.0325 9.92001 18.0071 8.57001 16.4067L9.5 15.3334C13.64 15.3334 17 12.3338 17 8.62505C17 7.6188 16.75 6.67006 16.3 5.81714C19.57 6.53589 22 9.18087 22 12.3242Z" stroke="#292D32" stroke-width="1.5" stroke-linecap="round" stroke-linejoin="round"/>
<path d="M7 8.625H12" stroke="#292D32" stroke-width="1.5" stroke-linecap="round" stroke-linejoin="round"/>
</svg>
