<svg width="21" height="21" viewBox="0 0 21 21" fill="none" xmlns="http://www.w3.org/2000/svg">
<path d="M18.8388 17.9113L15.4779 14.5504C16.6014 13.2177 17.2812 11.5001 17.2812 9.625C17.2812 5.40313 13.8469 1.96875 9.625 1.96875C5.40313 1.96875 1.96875 5.40313 1.96875 9.625C1.96875 13.8469 5.40313 17.2812 9.625 17.2812C11.5001 17.2812 13.2178 16.6014 14.5504 15.4779L17.9112 18.8387C18.039 18.9665 18.207 19.0312 18.375 19.0312C18.543 19.0312 18.711 18.9674 18.8388 18.8387C19.0951 18.5832 19.0951 18.1676 18.8388 17.9113ZM3.28125 9.625C3.28125 6.12675 6.12675 3.28125 9.625 3.28125C13.1232 3.28125 15.9687 6.12675 15.9687 9.625C15.9687 13.1233 13.1232 15.9688 9.625 15.9688C6.12675 15.9688 3.28125 13.1233 3.28125 9.625Z" fill="#374151"/>
</svg>
